<svg width="48" height="47" viewBox="0 0 48 47" fill="none" xmlns="http://www.w3.org/2000/svg">
<rect x="0.5" y="0.5" width="47" height="46" rx="19.5" fill="#73A3DD" stroke="#73A3DD"/>
<path d="M23.0433 35.384C21.4859 35.384 19.9393 35.1813 18.4033 34.776C16.8673 34.3493 15.5659 33.752 14.4992 32.984L16.5153 29.016C17.3686 29.6347 18.3606 30.1253 19.4913 30.488C20.6219 30.8507 21.7633 31.032 22.9153 31.032C24.2166 31.032 25.2406 30.776 25.9873 30.264C26.7339 29.752 27.1073 29.048 27.1073 28.152C27.1073 27.2987 26.7766 26.6267 26.1153 26.136C25.4539 25.6453 24.3873 25.4 22.9153 25.4H20.5473V21.976L26.7873 14.904L27.3633 16.76H15.6193V12.6H31.2993V15.96L25.0913 23.032L22.4673 21.528H23.9713C26.7233 21.528 28.8033 22.1467 30.2113 23.384C31.6193 24.6213 32.3233 26.2107 32.3233 28.152C32.3233 29.4107 31.9926 30.5947 31.3313 31.704C30.6699 32.792 29.6566 33.6773 28.2913 34.36C26.9259 35.0427 25.1766 35.384 23.0433 35.384Z" fill="white"/>
</svg>
