<svg width="48" height="47" viewBox="0 0 48 47" fill="none" xmlns="http://www.w3.org/2000/svg">
<rect x="0.5" y="0.5" width="47" height="46" rx="19.5" fill="#B1D132" stroke="#B1D132"/>
<path d="M15.6185 35V31.64L24.2585 23.48C24.9412 22.8613 25.4425 22.3067 25.7625 21.816C26.0825 21.3253 26.2958 20.8773 26.4025 20.472C26.5305 20.0667 26.5945 19.6933 26.5945 19.352C26.5945 18.456 26.2852 17.7733 25.6665 17.304C25.0692 16.8133 24.1838 16.568 23.0105 16.568C22.0718 16.568 21.1972 16.7493 20.3865 17.112C19.5972 17.4747 18.9252 18.04 18.3705 18.808L14.5945 16.376C15.4478 15.096 16.6425 14.0827 18.1785 13.336C19.7145 12.5893 21.4852 12.216 23.4905 12.216C25.1545 12.216 26.6052 12.4933 27.8425 13.048C29.1012 13.5813 30.0718 14.3387 30.7545 15.32C31.4585 16.3013 31.8105 17.4747 31.8105 18.84C31.8105 19.5653 31.7145 20.2907 31.5225 21.016C31.3518 21.72 30.9892 22.4667 30.4345 23.256C29.9012 24.0453 29.1118 24.9307 28.0665 25.912L20.8985 32.664L19.9065 30.776H32.5465V35H15.6185Z" fill="white"/>
</svg>
